<svg width="150" height="150" viewBox="0 0 150 150" fill="none" xmlns="http://www.w3.org/2000/svg">
<g clip-path="url(#clip0_318_7745)">
<rect x="-5" y="-5" width="160" height="160" fill="#49CCEA"/>
<path d="M72.7396 180.995C104.464 180.995 130.182 155.277 130.182 123.552C130.182 91.8273 104.464 66.1094 72.7396 66.1094C41.0148 66.1094 15.2969 91.8273 15.2969 123.552C15.2969 155.277 41.0148 180.995 72.7396 180.995Z" fill="#9E70FF"/>
<path d="M102.929 66.35C104.312 55.7991 98.1798 46.2948 89.2316 45.1215C80.2833 43.9483 71.9079 51.5503 70.5244 62.1011C69.141 72.6519 75.2735 82.1562 84.2218 83.3295C93.17 84.5028 101.545 76.9008 102.929 66.35Z" fill="white"/>
<path d="M100.14 62.682C100.971 56.3452 97.2868 50.6369 91.9116 49.9321C86.5363 49.2273 81.5052 53.7929 80.6744 60.1297C79.8435 66.4665 83.5274 72.1749 88.9027 72.8797C94.2779 73.5845 99.309 69.0188 100.14 62.682Z" fill="black"/>
<path d="M74.9602 66.348C76.3436 55.7972 70.2111 46.2929 61.2628 45.1196C52.3146 43.9463 43.9391 51.5483 42.5557 62.0991C41.1723 72.65 47.3048 82.1543 56.253 83.3276C65.2013 84.5009 73.5767 76.8989 74.9602 66.348Z" fill="white"/>
<path d="M72.1692 62.684C73.0001 56.3472 69.3161 50.6388 63.9409 49.934C58.5656 49.2292 53.5345 53.7949 52.7037 60.1317C51.8728 66.4685 55.5567 72.1768 60.932 72.8816C66.3072 73.5864 71.3383 69.0208 72.1692 62.684Z" fill="black"/>
<path d="M110.21 80.773C110.181 80.3604 109.879 80.0198 109.476 79.943C106.89 79.4441 97.2227 78.1103 84.8159 82.8456H78.9196C68.1248 79.3241 59.4649 79.9238 55.2478 80.6003L27.8242 70.3668C26.999 70.0598 26.0779 70.2517 25.4494 70.861L22.5468 73.6581C21.64 74.5312 21.6112 75.9753 22.4844 76.8821C23.3576 77.7889 24.8017 77.8176 25.7084 76.9445L27.5795 75.1453L55.1854 85.446C55.0559 87.1923 55.1566 90.8626 57.7618 94.2113C61.336 98.8075 66.7095 99.0234 67.4243 99.0378C68.3647 99.0858 72.8457 99.2057 76.4823 95.8713C79.6296 92.9879 80.2389 89.2937 80.4068 87.9456C80.4932 87.2307 80.5268 86.5686 80.5268 85.9689H83.938C84.0915 88.4877 84.9167 92.1771 88.1071 94.835C91.5807 97.728 95.6491 97.5601 96.7574 97.4738C97.7121 97.397 102.577 96.898 105.676 92.5609C108.564 88.5165 107.787 84.117 107.639 83.3398C107.639 83.3398 107.653 82.1164 109.428 81.8381C109.913 81.7613 110.268 81.3487 110.229 80.8594V80.7778L110.21 80.773Z" fill="black"/>
<path opacity="0.3" d="M59.5661 82.7302C60.7367 82.6151 63.4138 82.4328 66.1629 82.8502C67.1512 82.9989 67.463 84.2655 66.6426 84.8364C65.8222 85.4074 64.9874 86.1222 64.1766 87.0674C62.6894 88.8089 61.9265 90.6464 61.5283 92.0905C61.2788 92.9973 60.0938 93.2084 59.5613 92.4312C58.2707 90.5553 56.9081 87.3312 58.6881 83.3539C58.8464 83.0037 59.1822 82.7734 59.5661 82.735V82.7302Z" fill="white"/>
<path opacity="0.3" d="M87.3488 84.6394C88.1021 84.3851 89.8341 83.8574 91.7051 83.7135C92.3768 83.6607 92.775 84.4475 92.3241 84.9465C91.8731 85.4454 91.4317 86.0451 91.0431 86.7888C90.333 88.1609 90.1075 89.4851 90.0691 90.4926C90.0404 91.1259 89.2967 91.4473 88.8265 91.0155C87.6895 89.9792 86.303 88.065 86.8691 85.1768C86.9171 84.9225 87.109 84.721 87.3537 84.6346L87.3488 84.6394Z" fill="white"/>
</g>
<defs>
<clipPath id="clip0_318_7745">
<rect width="150" height="150" rx="75" fill="white"/>
</clipPath>
</defs>
</svg>
