<svg width="150" height="150" viewBox="0 0 150 150" fill="none" xmlns="http://www.w3.org/2000/svg">
<g clip-path="url(#clip0_318_7827)">
<rect width="150" height="150" rx="75" fill="#02F59B"/>
<rect x="-5" y="-4" width="160" height="160" fill="#9E70FF"/>
<g clip-path="url(#clip1_318_7827)">
<path d="M107.626 107.684C109.053 107.684 110.21 106.527 110.21 105.1C110.21 103.673 109.053 102.516 107.626 102.516C106.199 102.516 105.042 103.673 105.042 105.1C105.042 106.527 106.199 107.684 107.626 107.684Z" fill="white"/>
<path d="M23.9987 104.282V147.38C23.9987 152.139 27.8533 155.994 32.6123 155.994H104.256C111.931 155.994 115.773 146.717 110.346 141.29L88.041 118.985C82.6144 113.559 86.4561 104.282 94.1308 104.282H116.436C121.195 104.282 125.049 100.427 125.049 95.6683C125.049 72.7733 106.487 54.2109 83.592 54.2109H74.0654C46.4113 54.2109 23.9944 76.6279 23.9944 104.282H23.9987Z" fill="#49CCEA"/>
<path d="M100.944 112.025C102.357 112.025 103.502 110.879 103.502 109.466C103.502 108.054 102.357 106.908 100.944 106.908C99.5311 106.908 98.3857 108.054 98.3857 109.466C98.3857 110.879 99.5311 112.025 100.944 112.025Z" fill="#FF4F4F"/>
<path d="M93.758 114.94C95.1566 114.94 96.2904 113.806 96.2904 112.407C96.2904 111.009 95.1566 109.875 93.758 109.875C92.3594 109.875 91.2256 111.009 91.2256 112.407C91.2256 113.806 92.3594 114.94 93.758 114.94Z" fill="white"/>
<path d="M86.3257 116.405C87.7148 116.405 88.8409 115.279 88.8409 113.89C88.8409 112.501 87.7148 111.375 86.3257 111.375C84.9366 111.375 83.8105 112.501 83.8105 113.89C83.8105 115.279 84.9366 116.405 86.3257 116.405Z" fill="#FF4F4F"/>
<path d="M78.8929 116.37C80.2748 116.37 81.3951 115.249 81.3951 113.867C81.3951 112.486 80.2748 111.365 78.8929 111.365C77.5109 111.365 76.3906 112.486 76.3906 113.867C76.3906 115.249 77.5109 116.37 78.8929 116.37Z" fill="white"/>
<path d="M71.7046 114.794C73.0818 114.794 74.1982 113.677 74.1982 112.3C74.1982 110.923 73.0818 109.807 71.7046 109.807C70.3274 109.807 69.2109 110.923 69.2109 112.3C69.2109 113.677 70.3274 114.794 71.7046 114.794Z" fill="#FF4F4F"/>
<path d="M65.0843 111.69C66.4591 111.69 67.5736 110.575 67.5736 109.2C67.5736 107.825 66.4591 106.711 65.0843 106.711C63.7095 106.711 62.595 107.825 62.595 109.2C62.595 110.575 63.7095 111.69 65.0843 111.69Z" fill="white"/>
<path d="M59.3917 107.258C60.7665 107.258 61.881 106.143 61.881 104.769C61.881 103.394 60.7665 102.279 59.3917 102.279C58.0169 102.279 56.9023 103.394 56.9023 104.769C56.9023 106.143 58.0169 107.258 59.3917 107.258Z" fill="#FF4F4F"/>
<path d="M54.7134 101.71C56.0906 101.71 57.207 100.593 57.207 99.2163C57.207 97.8391 56.0906 96.7227 54.7134 96.7227C53.3362 96.7227 52.2197 97.8391 52.2197 99.2163C52.2197 100.593 53.3362 101.71 54.7134 101.71Z" fill="white"/>
<path d="M51.5023 95.0045C52.8842 95.0045 54.0045 93.8842 54.0045 92.5023C54.0045 91.1203 52.8842 90 51.5023 90C50.1203 90 49 91.1203 49 92.5023C49 93.8842 50.1203 95.0045 51.5023 95.0045Z" fill="#FF4F4F"/>
<path d="M48.8472 88.0929C50.2363 88.0929 51.3624 86.9668 51.3624 85.5777C51.3624 84.1886 50.2363 83.0625 48.8472 83.0625C47.4581 83.0625 46.332 84.1886 46.332 85.5777C46.332 86.9668 47.4581 88.0929 48.8472 88.0929Z" fill="white"/>
<path d="M47.8928 80.4476C49.2914 80.4476 50.4252 79.3138 50.4252 77.9152C50.4252 76.5166 49.2914 75.3828 47.8928 75.3828C46.4941 75.3828 45.3604 76.5166 45.3604 77.9152C45.3604 79.3138 46.4941 80.4476 47.8928 80.4476Z" fill="#FF4F4F"/>
<path d="M48.4088 72.5325C49.8217 72.5325 50.9671 71.3871 50.9671 69.9743C50.9671 68.5614 49.8217 67.416 48.4088 67.416C46.996 67.416 45.8506 68.5614 45.8506 69.9743C45.8506 71.3871 46.996 72.5325 48.4088 72.5325Z" fill="white"/>
<path d="M50.5069 64.551C51.9341 64.551 53.091 63.3941 53.091 61.9669C53.091 60.5397 51.9341 59.3828 50.5069 59.3828C49.0798 59.3828 47.9229 60.5397 47.9229 61.9669C47.9229 63.3941 49.0798 64.551 50.5069 64.551Z" fill="#FF4F4F"/>
<path d="M63.5072 59.9604C79.2066 56.8576 91.4946 52.1214 90.9532 49.3819C90.4117 46.6425 77.2459 46.9371 61.5465 50.0399C45.847 53.1428 33.559 57.879 34.1005 60.6185C34.6419 63.3579 47.8077 63.0633 63.5072 59.9604Z" fill="black"/>
<path d="M78.3334 52.3116L48.3322 58.2421L48.2676 29.1453C48.2676 27.7025 48.9093 26.3329 50.042 25.4414C51.5235 24.27 53.7846 22.9004 56.8123 22.3018C59.84 21.7031 62.4542 22.108 64.2717 22.6291C65.6585 23.0253 66.7739 24.046 67.3209 25.3811C70.9903 34.3565 74.6597 43.3362 78.3334 52.3116Z" fill="black"/>
<path d="M81.4744 87.4913C89.5071 86.438 95.0121 77.9062 93.7703 68.4348C92.5284 58.9635 85.0098 52.1393 76.9771 53.1925C68.9444 54.2458 63.4394 62.7776 64.6812 72.249C65.9231 81.7203 73.4417 88.5445 81.4744 87.4913Z" fill="white"/>
<path d="M77.2788 78.1124C82.1041 77.4797 85.4111 72.3554 84.6652 66.6669C83.9194 60.9784 79.4031 56.8799 74.5778 57.5126C69.7525 58.1453 66.4455 63.2696 67.1913 68.9581C67.9372 74.6465 72.4535 78.745 77.2788 78.1124Z" fill="black"/>
<path d="M106.581 87.4913C114.614 86.438 120.119 77.9062 118.877 68.4348C117.635 58.9635 110.116 52.1393 102.084 53.1925C94.0509 54.2458 88.5458 62.7776 89.7877 72.249C91.0296 81.7203 98.5481 88.5445 106.581 87.4913Z" fill="white"/>
<path d="M102.383 78.1124C107.209 77.4797 110.516 72.3554 109.77 66.6669C109.024 60.9784 104.508 56.8799 99.6823 57.5126C94.857 58.1453 91.55 63.2696 92.2958 68.9581C93.0417 74.6465 97.558 78.745 102.383 78.1124Z" fill="black"/>
</g>
</g>
<defs>
<clipPath id="clip0_318_7827">
<rect width="150" height="150" rx="75" fill="white"/>
</clipPath>
<clipPath id="clip1_318_7827">
<rect width="101.051" height="133.994" fill="white" transform="translate(23.999 22)"/>
</clipPath>
</defs>
</svg>
