<svg width="150" height="150" viewBox="0 0 150 150" fill="none" xmlns="http://www.w3.org/2000/svg">
<g clip-path="url(#clip0_318_7790)">
<rect width="150" height="150" rx="75" fill="#1D1E1F"/>
<rect x="-5" y="-4" width="160" height="160" fill="#2D2D2D"/>
<path d="M41.4539 88.5718L61.6893 155.591C62.8298 159.368 66.8131 161.504 70.5905 160.363L127.939 143.048C134.03 141.209 134.856 132.925 129.249 129.918L98.21 113.276C94.734 111.412 93.4273 107.084 95.291 103.608L111.933 72.5697C114.94 66.9619 109.667 60.5192 103.576 62.3585L46.2275 79.674C42.4501 80.8145 40.3144 84.7978 41.4549 88.5752L41.4539 88.5718Z" fill="#02F59B"/>
<path d="M61.3769 83.6625C67.5004 80.9014 69.8252 72.8101 66.5696 65.59C63.314 58.3699 55.7108 54.7551 49.5874 57.5162C43.464 60.2773 41.1392 68.3687 44.3948 75.5888C47.6504 82.8088 55.2535 86.4236 61.3769 83.6625Z" fill="white"/>
<path d="M62.2469 79.6612C65.9253 78.0026 67.3221 73.1427 65.3668 68.8063C63.4115 64.4699 58.8445 62.2992 55.1661 63.9578C51.4878 65.6164 50.0909 70.4763 52.0462 74.8126C54.0015 79.149 58.5685 81.3198 62.2469 79.6612Z" fill="black"/>
<path d="M82.9512 77.975C89.0746 75.2139 91.3994 67.1226 88.1438 59.9025C84.8882 52.6824 77.2851 49.0676 71.1616 51.8287C65.0382 54.5898 62.7134 62.6812 65.969 69.9013C69.2246 77.1213 76.8278 80.7361 82.9512 77.975Z" fill="white"/>
<path d="M83.825 73.9639C87.5034 72.3053 88.9002 67.4454 86.9449 63.109C84.9896 58.7727 80.4226 56.6019 76.7443 58.2605C73.0659 59.9191 71.6691 64.779 73.6244 69.1154C75.5797 73.4517 80.1466 75.6225 83.825 73.9639Z" fill="black"/>
<path d="M83.1217 41.5157C81.6537 41.316 79.6858 41.3366 77.4475 41.5075C75.8942 35.9418 70.7322 31.8028 64.5523 31.7051C57.0941 31.5835 50.9879 37.3981 50.9174 44.6897C50.9121 45.3685 51.4682 45.9265 52.1625 45.9362L76.6581 46.3314C76.8008 46.3356 76.9359 46.3057 77.0638 46.2665C80.7112 45.6813 82.7244 44.9671 83.7886 44.2848C84.9688 43.5286 84.523 41.7098 83.1176 41.5151L83.1217 41.5157Z" fill="#9E70FF"/>
</g>
<defs>
<clipPath id="clip0_318_7790">
<rect width="150" height="150" rx="75" fill="white"/>
</clipPath>
</defs>
</svg>
