<svg width="24" height="24" viewBox="0 0 24 24" fill="none" xmlns="http://www.w3.org/2000/svg">
<g clip-path="url(#clip0_8068_34600)">
<path d="M20.78 16.78L20.49 16.41C19.1 14.66 18.33 12.45 18.33 10.2C18.33 8.94 17.95 7.77 17.33 6.78L19.79 3.62C20.13 3.18 20.05 2.56 19.61 2.22C19.17 1.88 18.55 1.96 18.21 2.4L15.99 5.26C15.15 4.57 14.12 4.09 13 3.91V3.02C13 2.45 12.55 2 12 2C11.45 2 11 2.45 11 3V3.89C7.98003 4.38 5.67003 7.02 5.67003 10.2C5.67003 12.45 4.90003 14.66 3.51003 16.41L3.22003 16.78C2.98003 17.08 2.94003 17.49 3.10003 17.84C3.27003 18.19 3.62003 18.4 4.00003 18.4H5.76003L4.22003 20.39C3.88003 20.83 3.96003 21.45 4.40003 21.79C4.58003 21.93 4.80003 22 5.01003 22C5.31003 22 5.60003 21.87 5.80003 21.61L8.30003 18.4H8.35003C8.40003 20.39 10.02 22 12.01 22C14 22 15.61 20.39 15.67 18.4H20.01C20.39 18.4 20.74 18.18 20.91 17.84C21.08 17.49 21.03 17.08 20.79 16.78H20.78ZM5.94003 16.4C7.06003 14.54 7.66003 12.39 7.66003 10.2C7.66003 7.77 9.60003 5.8 11.99 5.8C13.04 5.8 13.99 6.2 14.74 6.83L7.30003 16.4H5.93003H5.94003ZM12 20C11.11 20 10.4 19.29 10.34 18.4H13.65C13.6 19.29 12.88 20 11.99 20H12ZM9.84003 16.4L15.99 8.49C16.21 9.02 16.33 9.59 16.33 10.2C16.33 12.39 16.93 14.54 18.05 16.4H9.84003Z" fill="#CCCFD0"/>
</g>
<defs>
<clipPath id="clip0_8068_34600">
<rect width="18" height="20" fill="white" transform="translate(3 2)"/>
</clipPath>
</defs>
</svg>
