<svg width="100%" height="100%" viewBox="0 0 24 24" fill="none" xmlns="http://www.w3.org/2000/svg">
<g clip-path="url(#clip0_8068_34597)">
<path d="M20.78 16.78L20.49 16.41C19.1 14.66 18.33 12.45 18.33 10.2C18.33 7.02 16.01 4.37 13 3.89V3C13 2.45 12.55 2 12 2C11.45 2 11 2.45 11 3V3.89C7.98003 4.38 5.67003 7.02 5.67003 10.2C5.67003 12.45 4.90003 14.66 3.51003 16.41L3.22003 16.78C2.98003 17.08 2.94003 17.49 3.10003 17.84C3.27003 18.19 3.62003 18.4 4.00003 18.4H8.34003C8.39003 20.39 10.01 22 12 22C13.99 22 15.6 20.39 15.66 18.4H20C20.38 18.4 20.73 18.18 20.9 17.84C21.07 17.49 21.02 17.08 20.78 16.78ZM12 20C11.11 20 10.4 19.29 10.34 18.4H13.65C13.6 19.29 12.88 20 11.99 20H12ZM5.94003 16.4C7.06003 14.54 7.66003 12.39 7.66003 10.2C7.66003 7.77 9.60003 5.8 11.99 5.8C14.38 5.8 16.32 7.77 16.32 10.2C16.32 12.39 16.92 14.54 18.04 16.4H5.94003Z" fill="currentColor"/>
</g>
<defs>
<clipPath id="clip0_8068_34597">
<rect width="18" height="20" fill="white" transform="translate(3 2)"/>
</clipPath>
</defs>
</svg>
