<svg width="24" height="24" viewBox="0 0 24 24" fill="none" xmlns="http://www.w3.org/2000/svg">
<g clip-path="url(#clip0_318_6989)">
<path d="M19.59 16.42C19.43 15.72 18.85 15.22 18.13 15.07V12C18.13 8.69 15.44 6 12.13 6H11.87C8.56002 6 5.87002 8.69 5.87002 12V15.07C5.15002 15.22 4.58002 15.72 4.42002 16.42L3.87002 18.82C3.75002 19.33 3.87002 19.86 4.21002 20.28C4.58002 20.74 5.14002 21 5.75002 21H18.27C18.88 21 19.45 20.74 19.81 20.28C20.14 19.86 20.26 19.33 20.15 18.82L19.6 16.42H19.59ZM7.87002 12C7.87002 9.79 9.66002 8 11.87 8H12.13C14.34 8 16.13 9.79 16.13 12V15H7.87002V12ZM5.87002 19L6.33002 17H17.67L18.13 19H5.87002Z" fill="#CCCFD0"/>
<path d="M12 5C12.55 5 13 4.55 13 4V3C13 2.45 12.55 2 12 2C11.45 2 11 2.45 11 3V4C11 4.55 11.45 5 12 5Z" fill="#CCCFD0"/>
<path d="M4.89001 9.00001C5.24001 9.00001 5.58001 8.82001 5.76001 8.49001C6.03001 8.01001 5.86001 7.40001 5.38001 7.13001L4.49001 6.63001C4.01001 6.36001 3.40001 6.53001 3.13001 7.01001C2.86001 7.49001 3.03001 8.10001 3.51001 8.37001L4.40001 8.87001C4.55001 8.96001 4.72001 9.00001 4.89001 9.00001Z" fill="#CCCFD0"/>
<path d="M20.87 7.01001C20.6 6.53001 19.99 6.36001 19.51 6.63001L18.62 7.13001C18.14 7.40001 17.97 8.01001 18.24 8.49001C18.42 8.82001 18.76 9.00001 19.11 9.00001C19.28 9.00001 19.44 8.96001 19.6 8.87001L20.49 8.37001C20.97 8.10001 21.14 7.49001 20.87 7.01001Z" fill="#CCCFD0"/>
</g>
<defs>
<clipPath id="clip0_318_6989">
<rect width="18" height="19" fill="white" transform="translate(3 2)"/>
</clipPath>
</defs>
</svg>
