<svg width="24" height="24" viewBox="0 0 24 24" fill="none" xmlns="http://www.w3.org/2000/svg">
<path d="M18.0107 20C17.8308 20 17.641 19.95 17.4811 19.84L11.995 16.19L6.50892 19.84C6.20914 20.04 5.82941 20.05 5.50964 19.88C5.19986 19.71 5 19.37 5 19V5C5 4.45 5.43969 4 5.9793 4H18.0207C18.5603 4 19 4.45 19 5V19C19 19.37 18.8001 19.7 18.4904 19.88C18.3405 19.96 18.1806 20 18.0207 20H18.0107ZM11.995 14C12.1749 14 12.3647 14.05 12.5246 14.16L17.0414 17.16V6H6.94861V17.16L11.4654 14.16C11.6253 14.05 11.8151 14 11.995 14Z" fill="#CCCFD0"/>
</svg>
