<svg width="24" height="24" viewBox="0 0 24 24" fill="none" xmlns="http://www.w3.org/2000/svg">
<g clip-path="url(#clip0_318_7000)">
<path d="M12 16C13.3807 16 14.5 14.8807 14.5 13.5C14.5 12.1193 13.3807 11 12 11C10.6193 11 9.5 12.1193 9.5 13.5C9.5 14.8807 10.6193 16 12 16Z" fill="#CCCFD0"/>
<path d="M19 7H16.62L15.17 4.11C14.83 3.43 14.14 3 13.38 3H10.62C9.86 3 9.17 3.42 8.83 4.11L7.38 7H5C3.9 7 3 7.9 3 9V19C3 20.1 3.9 21 5 21H19C20.1 21 21 20.1 21 19V9C21 7.9 20.1 7 19 7ZM12 18C9.52 18 7.5 15.98 7.5 13.5C7.5 11.02 9.52 9 12 9C14.48 9 16.5 11.02 16.5 13.5C16.5 15.98 14.48 18 12 18Z" fill="#CCCFD0"/>
</g>
<defs>
<clipPath id="clip0_318_7000">
<rect width="18" height="18" fill="white" transform="translate(3 3)"/>
</clipPath>
</defs>
</svg>
