<svg width="24" height="24" viewBox="0 0 24 24" fill="none" xmlns="http://www.w3.org/2000/svg">
<g clip-path="url(#clip0_318_6996)">
<path d="M19 7H16.62L15.17 4.11C14.83 3.43 14.14 3 13.38 3H10.62C9.86 3 9.17 3.42 8.83 4.11L7.38 7H5C3.9 7 3 7.9 3 9V19C3 20.1 3.9 21 5 21H19C20.1 21 21 20.1 21 19V9C21 7.9 20.1 7 19 7ZM19 19H5V9H8C8.38 9 8.73 8.79 8.89 8.45L10.61 5H13.37L15.09 8.45C15.26 8.79 15.61 9 15.98 9H18.98V19H19Z" fill="currentColor"/>
<path d="M12 9C9.52 9 7.5 11.02 7.5 13.5C7.5 15.98 9.52 18 12 18C14.48 18 16.5 15.98 16.5 13.5C16.5 11.02 14.48 9 12 9ZM12 16C10.62 16 9.5 14.88 9.5 13.5C9.5 12.12 10.62 11 12 11C13.38 11 14.5 12.12 14.5 13.5C14.5 14.88 13.38 16 12 16Z" fill="currentColor"/>
</g>
<defs>
<clipPath id="clip0_318_6996">
<rect width="18" height="18" fill="white" transform="translate(3 3)"/>
</clipPath>
</defs>
</svg>
