<svg width="20" height="20" viewBox="0 0 20 20" fill="none" xmlns="http://www.w3.org/2000/svg">
<g clip-path="url(#clip0_8628_34256)">
<rect width="20" height="20" rx="2.5" fill="#848687"/>
<g clip-path="url(#clip1_8628_34256)">
<path d="M9.49162 15.0001C9.28328 15.0001 9.08328 14.9251 8.92495 14.7751L4.43328 10.6085C4.09995 10.2918 4.07495 9.76679 4.39162 9.43346C4.70828 9.09179 5.23328 9.07512 5.56662 9.39179L9.36662 12.9168L14.8 5.35012C15.0666 4.97512 15.5916 4.89179 15.9666 5.15846C16.3416 5.42512 16.425 5.95012 16.1583 6.32512L10.1666 14.6585C10.025 14.8501 9.80828 14.9751 9.57495 15.0001C9.54995 15.0001 9.51662 15.0001 9.49162 15.0001Z" fill="#616262"/>
</g>
</g>
<defs>
<clipPath id="clip0_8628_34256">
<rect width="20" height="20" fill="white"/>
</clipPath>
<clipPath id="clip1_8628_34256">
<rect width="12.15" height="10" fill="white" transform="translate(4.16666 5)"/>
</clipPath>
</defs>
</svg>
