<svg width="20" height="20" viewBox="0 0 20 20" fill="none" xmlns="http://www.w3.org/2000/svg">
<g clip-path="url(#clip0_8628_34263)">
<rect x="0.625" y="0.625" width="18.75" height="18.75" rx="1.875" stroke="#FF4F4F" stroke-width="1.25"/>
<g clip-path="url(#clip1_8628_34263)">
<path d="M11.1746 10.0004L14.758 6.42537C15.083 6.10037 15.083 5.57537 14.758 5.25037C14.433 4.92537 13.908 4.92537 13.583 5.25037L10.008 8.82537L6.42464 5.24204C6.09964 4.91704 5.56631 4.91704 5.24131 5.24204C4.91631 5.56704 4.91631 6.10037 5.24131 6.42537L8.81631 10.0004L5.24131 13.5754C4.91631 13.9004 4.91631 14.4254 5.24131 14.7504C5.40798 14.917 5.61631 14.992 5.83298 14.992C6.04964 14.992 6.25798 14.9087 6.42464 14.7504L9.99964 11.1754L13.5746 14.7504C13.7413 14.917 13.9496 14.992 14.1663 14.992C14.383 14.992 14.5913 14.9087 14.758 14.7504C15.083 14.4254 15.083 13.9004 14.758 13.5754L11.183 10.0004H11.1746Z" fill="#FF4F4F"/>
</g>
</g>
<defs>
<clipPath id="clip0_8628_34263">
<rect width="20" height="20" fill="white"/>
</clipPath>
<clipPath id="clip1_8628_34263">
<rect width="10" height="10" fill="white" transform="translate(5 5)"/>
</clipPath>
</defs>
</svg>
