<svg width="24" height="24" viewBox="0 0 24 24" fill="none" xmlns="http://www.w3.org/2000/svg">
<g clip-path="url(#clip0_318_6908)">
<path d="M13.4096 12.0005L17.7096 7.71055C18.0996 7.32055 18.0996 6.69055 17.7096 6.30055C17.3196 5.91055 16.6896 5.91055 16.2996 6.30055L12.0096 10.5905L7.70957 6.29055C7.31957 5.90055 6.67957 5.90055 6.28957 6.29055C5.89957 6.68055 5.89957 7.32055 6.28957 7.71055L10.5796 12.0005L6.28957 16.2905C5.89957 16.6805 5.89957 17.3105 6.28957 17.7005C6.48957 17.9005 6.73957 17.9905 6.99957 17.9905C7.25957 17.9905 7.50957 17.8905 7.70957 17.7005L11.9996 13.4105L16.2896 17.7005C16.4896 17.9005 16.7396 17.9905 16.9996 17.9905C17.2596 17.9905 17.5096 17.8905 17.7096 17.7005C18.0996 17.3105 18.0996 16.6805 17.7096 16.2905L13.4196 12.0005H13.4096Z" fill="#CCCFD0"/>
</g>
<defs>
<clipPath id="clip0_318_6908">
<rect width="12" height="12" fill="white" transform="translate(6 6)"/>
</clipPath>
</defs>
</svg>
