<svg width="24" height="24" viewBox="0 0 24 24" fill="none" xmlns="http://www.w3.org/2000/svg">
<g clip-path="url(#clip0_318_6926)">
<path d="M5 20C4.75 20 4.5 19.95 4.26 19.85C3.5 19.54 3 18.8 3 17.97V10.17C3 6.22 6.14 3 10 3H14C17.86 3 21 6.22 21 10.17C21 14.12 17.86 17.34 14 17.34H8.42L6.42 19.4C6.04 19.79 5.52 20 5 20ZM10 5C7.24 5 5 7.32 5 10.17V17.97L7.28 15.64C7.47 15.45 7.73 15.34 8 15.34H14C16.76 15.34 19 13.02 19 10.17C19 7.32 16.76 5 14 5H10Z" fill="#CCCFD0"/>
</g>
<defs>
<clipPath id="clip0_318_6926">
<rect width="18" height="17" fill="white" transform="translate(3 3)"/>
</clipPath>
</defs>
</svg>
