<svg width="24" height="24" viewBox="0 0 24 24" fill="none" xmlns="http://www.w3.org/2000/svg">
<g clip-path="url(#clip0_318_6966)">
<path d="M20.71 13.29L15.71 8.29C15.32 7.9 14.69 7.9 14.3 8.29C13.91 8.68 13.91 9.31 14.3 9.7L17.59 12.99H8.21C6.99 12.99 6 11.89 6 10.53V4C6 3.45 5.55 3 5 3C4.45 3 4 3.45 4 4V10.54C4 13 5.89 15 8.21 15H17.58L14.29 18.29C13.9 18.68 13.9 19.31 14.29 19.7C14.49 19.9 14.74 19.99 15 19.99C15.26 19.99 15.51 19.89 15.71 19.7L20.71 14.7C21.1 14.31 21.1 13.68 20.71 13.29Z" fill="#CCCFD0"/>
</g>
<defs>
<clipPath id="clip0_318_6966">
<rect width="17" height="17" fill="white" transform="translate(4 3)"/>
</clipPath>
</defs>
</svg>
