<svg width="24" height="24" viewBox="0 0 24 24" fill="none" xmlns="http://www.w3.org/2000/svg">
<g clip-path="url(#clip0_318_6984)">
<path d="M6.57999 18.99C6.05999 18.99 5.54999 18.79 5.16999 18.4C4.62999 17.86 4.44999 17.08 4.68999 16.35L6.05999 12.25C6.10999 12.1 6.18999 11.97 6.29999 11.86L15.59 2.57C16.35 1.81 17.66 1.81 18.42 2.57L21.01 5.16C21.79 5.94 21.79 7.21 21.01 7.99L11.71 17.27C11.6 17.38 11.47 17.46 11.32 17.51L7.21999 18.88C7.00999 18.95 6.79999 18.98 6.57999 18.98V18.99ZM7.86999 13.11L6.57999 16.99L10.46 15.7L19.59 6.57L17 3.98L7.86999 13.11Z" fill="currentColor"/>
<path d="M17.9996 9.57063C17.7396 9.57063 17.4896 9.47063 17.2896 9.28063L14.2896 6.28063C13.8996 5.89063 13.8996 5.26063 14.2896 4.87062C14.6796 4.48063 15.3096 4.48063 15.6996 4.87062L18.6996 7.87063C19.0896 8.26062 19.0896 8.89063 18.6996 9.28063C18.4996 9.48063 18.2496 9.57063 17.9896 9.57063H17.9996Z" fill="currentColor"/>
<path d="M19.11 21.5703H4.89C4.4 21.5703 4 21.1203 4 20.5703C4 20.0203 4.4 19.5703 4.89 19.5703H19.11C19.6 19.5703 20 20.0203 20 20.5703C20 21.1203 19.6 21.5703 19.11 21.5703Z" fill="currentColor"/>
</g>
<defs>
<clipPath id="clip0_318_6984">
<rect width="17.58" height="19.57" fill="white" transform="translate(4 2)"/>
</clipPath>
</defs>
</svg>
