<svg width="24" height="24" viewBox="0 0 24 24" fill="none" xmlns="http://www.w3.org/2000/svg">
<g clip-path="url(#clip0_318_6955)">
<path d="M21.9004 11.57C19.9604 7.52 16.1604 5 12.0004 5C7.84043 5 4.04043 7.52 2.10043 11.57C1.97043 11.84 1.97043 12.16 2.10043 12.44C4.04043 16.49 7.84043 19.01 12.0004 19.01C16.1604 19.01 19.9604 16.49 21.9004 12.44C22.0304 12.17 22.0304 11.85 21.9004 11.57ZM12.0004 17C8.76043 17 5.78043 15.1 4.12043 12C5.78043 8.9 8.76043 7 12.0004 7C15.2404 7 18.2204 8.9 19.8804 12C18.2204 15.1 15.2404 17 12.0004 17Z" fill="#CCCFD0"/>
<path d="M12 8C9.79 8 8 9.79 8 12C8 14.21 9.79 16 12 16C14.21 16 16 14.21 16 12C16 9.79 14.21 8 12 8ZM12 14C10.9 14 10 13.1 10 12C10 10.9 10.9 10 12 10C13.1 10 14 10.9 14 12C14 13.1 13.1 14 12 14Z" fill="#CCCFD0"/>
</g>
<defs>
<clipPath id="clip0_318_6955">
<rect width="20" height="14" fill="white" transform="translate(2 5)"/>
</clipPath>
</defs>
</svg>
