<svg width="16" height="16" viewBox="0 0 16 16" fill="none" xmlns="http://www.w3.org/2000/svg">
<g clip-path="url(#clip0_9249_39134)">
<rect width="16" height="16" rx="8" fill="#FFD7E8"/>
<g clip-path="url(#clip1_9249_39134)">
<path d="M11.78 6.22008C11.78 4.26008 10.18 2.66675 8.21996 2.66675C6.25996 2.66675 4.66663 4.26008 4.66663 6.22008C4.66663 7.98008 5.95329 9.44008 7.62663 9.72008V10.3667H6.43996C6.11329 10.3667 5.84663 10.6334 5.84663 10.9601C5.84663 11.2867 6.11329 11.5534 6.43996 11.5534H7.62663V12.7401C7.62663 13.0667 7.89329 13.3334 8.21996 13.3334C8.54663 13.3334 8.81329 13.0667 8.81329 12.7401V11.5534H9.99996C10.3266 11.5534 10.5933 11.2867 10.5933 10.9601C10.5933 10.6334 10.3266 10.3667 9.99996 10.3667H8.81329V9.72008C10.4933 9.43341 11.7733 7.97341 11.7733 6.22008H11.78ZM5.85329 6.22008C5.85329 4.91341 6.91996 3.84675 8.22663 3.84675C9.53329 3.84675 10.6 4.91341 10.6 6.22008C10.6 7.52675 9.53329 8.59342 8.22663 8.59342C6.91996 8.59342 5.85329 7.52675 5.85329 6.22008Z" fill="#FF3187"/>
</g>
</g>
<defs>
<clipPath id="clip0_9249_39134">
<rect width="16" height="16" rx="8" fill="white"/>
</clipPath>
<clipPath id="clip1_9249_39134">
<rect width="16" height="16" rx="8" fill="white"/>
</clipPath>
</defs>
</svg>
