<svg width="24" height="24" viewBox="0 0 24 24" fill="none" xmlns="http://www.w3.org/2000/svg">
<path d="M17.67 9.33C17.67 6.39 15.27 4 12.33 4C9.39 4 7 6.39 7 9.33C7 11.97 8.93 14.16 11.44 14.58V15.55H9.66C9.17 15.55 8.77 15.95 8.77 16.44C8.77 16.93 9.17 17.33 9.66 17.33H11.44V19.11C11.44 19.6 11.84 20 12.33 20C12.82 20 13.22 19.6 13.22 19.11V17.33H15C15.49 17.33 15.89 16.93 15.89 16.44C15.89 15.95 15.49 15.55 15 15.55H13.22V14.58C15.74 14.15 17.66 11.96 17.66 9.33H17.67ZM8.78 9.33C8.78 7.37 10.38 5.77 12.34 5.77C14.3 5.77 15.9 7.37 15.9 9.33C15.9 11.29 14.3 12.89 12.34 12.89C10.38 12.89 8.78 11.29 8.78 9.33Z" fill="#CCCFD0"/>
</svg>
