<svg width="24" height="24" viewBox="0 0 24 24" fill="none" xmlns="http://www.w3.org/2000/svg">
<g clip-path="url(#clip0_318_6894)">
<path d="M22 12C22 6.51 17.54 2.03 12.06 2C12.06 2 12.06 2 12.05 2C12.03 2 12.02 2 12 2C11.99 2 11.97 2 11.96 2C11.96 2 11.95 2 11.94 2C6.45 2.04 2 6.51 2 12C2 17.49 6.49 22 12 22C17.51 22 22 17.51 22 12ZM16.96 11C16.88 10.02 16.7 9.11 16.45 8.28C17.13 8.06 17.83 7.77 18.54 7.4C19.27 8.44 19.76 9.67 19.93 10.99H16.96V11ZM12 19.59C11.25 18.79 10.69 17.95 10.27 17.12C10.91 17.03 11.5 16.99 12 16.99C12.61 16.99 13.18 17.04 13.73 17.12C13.31 17.94 12.75 18.78 12 19.58V19.59ZM12 15C11.29 15 10.44 15.06 9.5 15.22C9.24 14.37 9.11 13.6 9.05 13H14.94C14.88 13.6 14.75 14.37 14.49 15.22C13.71 15.08 12.88 15 11.99 15H12ZM9.05 11C9.12 10.2 9.28 9.45 9.49 8.77C10.27 8.91 11.11 9 12 9C12.71 9 13.57 8.94 14.51 8.77C14.72 9.45 14.88 10.19 14.95 11H9.05ZM12 4.41C12.51 4.97 13.16 5.8 13.72 6.87C13.08 6.96 12.5 7 12 7C11.39 7 10.82 6.95 10.28 6.87C10.84 5.8 11.49 4.97 12 4.41ZM15.73 6.42C15.37 5.66 14.97 5 14.57 4.43C15.51 4.75 16.38 5.24 17.13 5.87C16.65 6.09 16.19 6.28 15.73 6.42ZM8.28 6.42C7.77 6.26 7.3 6.07 6.88 5.87C7.63 5.24 8.5 4.75 9.45 4.43C9.05 5 8.65 5.66 8.29 6.42H8.28ZM7.55 8.29C7.3 9.12 7.12 10.03 7.04 11H4.07C4.24 9.67 4.73 8.45 5.46 7.4C6.07 7.71 6.76 8.02 7.54 8.28L7.55 8.29ZM7.05 13C7.11 13.71 7.26 14.65 7.57 15.71C6.89 15.93 6.18 16.22 5.46 16.59C4.73 15.55 4.24 14.32 4.07 13H7.05ZM8.27 17.58C8.57 18.23 8.94 18.9 9.4 19.56C8.47 19.24 7.61 18.76 6.87 18.14C7.34 17.92 7.81 17.73 8.27 17.59V17.58ZM15.73 17.58C16.24 17.74 16.71 17.93 17.13 18.13C16.39 18.75 15.53 19.24 14.6 19.56C15.06 18.9 15.43 18.24 15.73 17.59V17.58ZM16.43 15.71C16.74 14.66 16.89 13.72 16.95 13H19.93C19.76 14.33 19.27 15.55 18.54 16.6C17.93 16.28 17.23 15.97 16.44 15.71H16.43Z" fill="#CCCFD0"/>
</g>
<defs>
<clipPath id="clip0_318_6894">
<rect width="20" height="20" fill="white" transform="translate(2 2)"/>
</clipPath>
</defs>
</svg>
