<svg width="24" height="24" viewBox="0 0 24 24" fill="none" xmlns="http://www.w3.org/2000/svg">
<g clip-path="url(#clip0_318_6949)">
<path d="M12 20C11.74 20 11.49 19.9 11.29 19.71L4.56 13.03C3.55 12.03 3 10.7 3 9.29C3 7.88 3.55 6.55 4.56 5.55C5.57 4.55 6.9 4 8.33 4C9.76 4 11.01 4.52 12 5.46C12.99 4.52 14.29 4 15.67 4C17.05 4 18.43 4.55 19.44 5.55C20.45 6.55 21 7.88 21 9.29C21 10.7 20.45 12.03 19.44 13.03L12.71 19.71C12.51 19.9 12.26 20 12 20ZM8.33 5.99C7.44 5.99 6.61 6.33 5.98 6.96C4.68 8.25 4.68 10.34 5.98 11.63L12.01 17.61L18.03 11.63C19.33 10.34 19.33 8.25 18.03 6.96C16.77 5.71 14.58 5.71 13.32 6.96L12.71 7.57C12.32 7.96 11.69 7.96 11.3 7.57L10.69 6.96C10.06 6.34 9.23 5.99 8.34 5.99H8.33Z" fill="#CCCFD0"/>
</g>
<defs>
<clipPath id="clip0_318_6949">
<rect width="18" height="16" fill="white" transform="translate(3 4)"/>
</clipPath>
</defs>
</svg>
