<svg width="24" height="24" viewBox="0 0 24 24" fill="none" xmlns="http://www.w3.org/2000/svg">
<g clip-path="url(#clip0_318_6952)">
<path d="M19.44 5.55C18.43 4.55 17.1 4 15.67 4C14.24 4 12.99 4.52 12 5.46C11.01 4.52 9.71 4 8.33 4C6.95 4 5.57 4.55 4.56 5.55C3.55 6.55 3 7.88 3 9.29C3 10.7 3.55 12.03 4.56 13.03L11.29 19.71C11.49 19.9 11.74 20 12 20C12.26 20 12.51 19.9 12.71 19.71L19.44 13.03C20.45 12.03 21 10.7 21 9.29C21 7.88 20.45 6.55 19.44 5.55Z" fill="#02F59B"/>
</g>
<defs>
<clipPath id="clip0_318_6952">
<rect width="18" height="16" fill="white" transform="translate(3 4)"/>
</clipPath>
</defs>
</svg>
