<svg width="24" height="24" viewBox="0 0 24 24" fill="none" xmlns="http://www.w3.org/2000/svg">
<g clip-path="url(#clip0_374_22877)">
<path d="M12 2C6.49 2 2 6.49 2 12C2 17.51 6.49 22 12 22C17.51 22 22 17.51 22 12C22 6.49 17.51 2 12 2ZM12 20C7.59 20 4 16.41 4 12C4 7.59 7.59 4 12 4C16.41 4 20 7.59 20 12C20 16.41 16.41 20 12 20Z" fill="#CCCFD0"/>
<path d="M12 10C11.45 10 11 10.45 11 11V17C11 17.55 11.45 18 12 18C12.55 18 13 17.55 13 17V11C13 10.45 12.55 10 12 10Z" fill="#CCCFD0"/>
<path d="M12 6C11.45 6 11 6.45 11 7V8C11 8.55 11.45 9 12 9C12.55 9 13 8.55 13 8V7C13 6.45 12.55 6 12 6Z" fill="#CCCFD0"/>
</g>
<defs>
<clipPath id="clip0_374_22877">
<rect width="20" height="20" fill="white" transform="translate(2 2)"/>
</clipPath>
</defs>
</svg>
