<svg width="24" height="24" viewBox="0 0 24 24" fill="none" xmlns="http://www.w3.org/2000/svg">
<g clip-path="url(#clip0_1335_26514)">
<path d="M11.98 16.7799C10.38 18.3699 7.79 18.3699 6.19 16.7799C4.59 15.1799 4.59 12.5899 6.19 10.9899L7.39 9.7899C7.77999 9.3999 7.77999 8.7699 7.39 8.3799C7 7.9899 6.37 7.9899 5.98 8.3799L4.78 9.5799C2.4 11.9599 2.4 15.8199 4.78 18.1899C5.97 19.3799 7.53 19.9699 9.09 19.9699C10.65 19.9699 12.21 19.3799 13.4 18.1899C13.79 17.7999 13.79 17.1699 13.4 16.7799C13.01 16.3899 12.38 16.3899 11.99 16.7799H11.98Z" fill="#CCCFD0"/>
<path d="M9.79997 7.4L11 6.2C12.6 4.61 15.19 4.61 16.79 6.2C17.56 6.97 17.99 8 17.99 9.09C17.99 10.18 17.56 11.21 16.79 11.98C16.4 12.37 16.4 13 16.79 13.39C16.99 13.59 17.24 13.68 17.5 13.68C17.76 13.68 18.01 13.58 18.21 13.39C20.59 11.01 20.59 7.15 18.21 4.78C17.06 3.63 15.53 3 13.9 3C12.27 3 10.74 3.63 9.58997 4.78L8.38997 5.98C7.99997 6.37 7.99997 7 8.38997 7.39C8.77997 7.78 9.40997 7.78 9.79997 7.39V7.4Z" fill="#CCCFD0"/>
<path d="M7.78 15.2001C7.98 15.4001 8.23 15.4901 8.49 15.4901C8.75 15.4901 9 15.3901 9.2 15.2001L15.2 9.20006C15.59 8.81006 15.59 8.18006 15.2 7.79006C14.81 7.40006 14.18 7.40006 13.79 7.79006L7.79 13.7901C7.4 14.1801 7.4 14.8101 7.79 15.2001H7.78Z" fill="#CCCFD0"/>
<path d="M19.49 16.74H18.24V15.49C18.24 15.08 17.9 14.74 17.49 14.74C17.08 14.74 16.74 15.08 16.74 15.49V16.74H15.49C15.08 16.74 14.74 17.08 14.74 17.49C14.74 17.9 15.08 18.24 15.49 18.24H16.74V19.49C16.74 19.9 17.08 20.24 17.49 20.24C17.9 20.24 18.24 19.9 18.24 19.49V18.24H19.49C19.9 18.24 20.24 17.9 20.24 17.49C20.24 17.08 19.9 16.74 19.49 16.74Z" fill="#CCCFD0"/>
</g>
<defs>
<clipPath id="clip0_1335_26514">
<rect width="17.24" height="17.24" fill="white" transform="translate(3 3)"/>
</clipPath>
</defs>
</svg>
