<svg width="24" height="24" viewBox="0 0 24 24" fill="none" xmlns="http://www.w3.org/2000/svg">
<path d="M13.22 9.4075V7.0275L14.37 8.1775C14.54 8.3475 14.77 8.4375 15 8.4375C15.23 8.4375 15.45 8.3475 15.63 8.1775C15.98 7.8275 15.98 7.2675 15.63 6.9175L12.96 4.2575C12.88 4.1775 12.78 4.1075 12.67 4.0675C12.45 3.9775 12.21 3.9775 11.99 4.0675C11.88 4.1175 11.78 4.1775 11.7 4.2575L9.03 6.9275C8.68 7.2775 8.68 7.8375 9.03 8.1875C9.38 8.5375 9.94 8.5375 10.29 8.1875L11.44 7.0375V9.4175C8.92 9.8475 7 12.0375 7 14.6675C7 17.6075 9.39 19.9975 12.33 19.9975C15.27 19.9975 17.66 17.6075 17.66 14.6675C17.66 12.0275 15.73 9.8375 13.22 9.4175V9.4075ZM12.33 18.2175C10.37 18.2175 8.77 16.6175 8.77 14.6575C8.77 12.6975 10.37 11.0975 12.33 11.0975C14.29 11.0975 15.89 12.6975 15.89 14.6575C15.89 16.6175 14.29 18.2175 12.33 18.2175Z" fill="#CCCFD0"/>
</svg>
