<svg width="16" height="16" viewBox="0 0 16 16" fill="none" xmlns="http://www.w3.org/2000/svg">
<g clip-path="url(#clip0_9248_39104)">
<rect width="16" height="16" rx="8" fill="#CBE4FF"/>
<path d="M8.81329 6.27175V4.68508L9.57996 5.45175C9.69329 5.56508 9.84663 5.62508 9.99996 5.62508C10.1533 5.62508 10.3 5.56508 10.42 5.45175C10.6533 5.21841 10.6533 4.84508 10.42 4.61175L8.63996 2.83841C8.58663 2.78508 8.51996 2.73841 8.44663 2.71175C8.29996 2.65175 8.13996 2.65175 7.99329 2.71175C7.91996 2.74508 7.85329 2.78508 7.79996 2.83841L6.01996 4.61841C5.78663 4.85175 5.78663 5.22508 6.01996 5.45841C6.25329 5.69175 6.62663 5.69175 6.85996 5.45841L7.62663 4.69175V6.27841C5.94663 6.56508 4.66663 8.02508 4.66663 9.77842C4.66663 11.7384 6.25996 13.3317 8.21996 13.3317C10.18 13.3317 11.7733 11.7384 11.7733 9.77842C11.7733 8.01842 10.4866 6.55841 8.81329 6.27841V6.27175ZM8.21996 12.1451C6.91329 12.1451 5.84663 11.0784 5.84663 9.77175C5.84663 8.46508 6.91329 7.39841 8.21996 7.39841C9.52663 7.39841 10.5933 8.46508 10.5933 9.77175C10.5933 11.0784 9.52663 12.1451 8.21996 12.1451Z" fill="#007AFF"/>
</g>
<defs>
<clipPath id="clip0_9248_39104">
<rect width="16" height="16" rx="8" fill="white"/>
</clipPath>
</defs>
</svg>
