<svg width="24" height="24" viewBox="0 0 24 24" fill="none" xmlns="http://www.w3.org/2000/svg">
<g clip-path="url(#clip0_681_15872)">
<path d="M12.44 16C11.89 16 11.44 15.55 11.44 15V13.83C11.44 12.86 11.9 11.93 12.68 11.35L15.25 9.42C15.66 9.11 15.81 8.57 15.61 8.11C15.06 6.83 13.82 6 12.44 6C10.54 6 9 7.54 9 9.44C9 9.99 8.55 10.44 8 10.44C7.45 10.44 7 9.99 7 9.44C7 6.44 9.44 4 12.44 4C14.62 4 16.59 5.3 17.45 7.32C18.01 8.64 17.6 10.16 16.45 11.02L13.88 12.95C13.6 13.16 13.44 13.49 13.44 13.83V15C13.44 15.55 12.99 16 12.44 16Z" fill="currentColor"/>
<path d="M12.3 20C13.1284 20 13.8 19.3284 13.8 18.5C13.8 17.6716 13.1284 17 12.3 17C11.4716 17 10.8 17.6716 10.8 18.5C10.8 19.3284 11.4716 20 12.3 20Z" fill="currentColor"/>
</g>
<defs>
<clipPath id="clip0_681_15872">
<rect width="10.7" height="16" fill="white" transform="translate(7 4)"/>
</clipPath>
</defs>
</svg>
