<svg width="24" height="24" viewBox="0 0 24 24" fill="none" xmlns="http://www.w3.org/2000/svg">
<g clip-path="url(#clip0_8437_33413)">
<path d="M21.59 16.5L14.65 4.51C14.1 3.56 13.11 3 12 3C10.89 3 9.89998 3.57 9.34998 4.51L2.40998 16.5C1.85998 17.44 1.86998 18.56 2.40998 19.5C2.94998 20.44 3.94998 21 5.04998 21H18.94C20.04 21 21.02 20.44 21.58 19.5C22.14 18.56 22.14 17.44 21.59 16.5ZM19.83 18.5C19.74 18.65 19.48 19 18.95 19H5.04998C4.51998 19 4.25998 18.65 4.16998 18.5C4.07998 18.35 3.90998 17.95 4.16998 17.5L11.12 5.51C11.38 5.05 11.82 5.01 12 5.01C12.18 5.01 12.62 5.06 12.88 5.51L19.83 17.5C20.09 17.95 19.91 18.35 19.83 18.5Z" fill="#CCCFD0"/>
<path d="M11.95 6.97998C11.39 6.97998 10.93 7.42998 10.93 7.97998V13.99C10.93 14.54 11.38 14.99 11.95 14.99C12.52 14.99 12.97 14.54 12.97 13.99V7.97998C12.97 7.42998 12.52 6.97998 11.95 6.97998Z" fill="#CCCFD0"/>
<path d="M12.67 16.28C12.57 16.19 12.47 16.12 12.33 16.07C12.15 15.99 11.94 15.97 11.75 16.01C11.68 16.01 11.62 16.04 11.56 16.07C11.5 16.09 11.44 16.12 11.39 16.16C11.33 16.2 11.28 16.24 11.23 16.28C11.14 16.38 11.07 16.49 11.02 16.61C10.97 16.73 10.94 16.86 10.94 16.99C10.94 17.25 11.05 17.51 11.23 17.7C11.28 17.74 11.33 17.78 11.39 17.82C11.44 17.86 11.5 17.89 11.56 17.91C11.62 17.94 11.68 17.96 11.75 17.97C11.81 17.97 11.88 17.99 11.94 17.99C12.07 17.99 12.2 17.96 12.33 17.91C12.46 17.86 12.57 17.79 12.67 17.7C12.85 17.51 12.96 17.25 12.96 16.99C12.96 16.86 12.94 16.73 12.88 16.61C12.83 16.49 12.76 16.38 12.67 16.28Z" fill="#CCCFD0"/>
</g>
<defs>
<clipPath id="clip0_8437_33413">
<rect width="20" height="18" fill="white" transform="translate(2 3)"/>
</clipPath>
</defs>
</svg>
