<svg width="24" height="24" viewBox="0 0 24 24" fill="none" xmlns="http://www.w3.org/2000/svg">
<g clip-path="url(#clip0_318_6974)">
<path d="M21 4.5H19.5V3C19.5 2.45 19.05 2 18.5 2C17.95 2 17.5 2.45 17.5 3V4.5H16C15.45 4.5 15 4.95 15 5.5C15 6.05 15.45 6.5 16 6.5H17.5V8C17.5 8.55 17.95 9 18.5 9C19.05 9 19.5 8.55 19.5 8V6.5H21C21.55 6.5 22 6.05 22 5.5C22 4.95 21.55 4.5 21 4.5Z" fill="#CCCFD0"/>
<path d="M20 11C19.45 11 19 11.45 19 12V12.59L17.71 11.3C17.36 10.95 16.8 10.91 16.4 11.21L13.09 13.69L8.7 9.3C8.31 8.91 7.68 8.91 7.29 9.3L5 11.59V5H13C13.55 5 14 4.55 14 4C14 3.45 13.55 3 13 3H5C3.9 3 3 3.9 3 5V19C3 20.1 3.9 21 5 21H19C20.1 21 21 20.1 21 19V12C21 11.45 20.55 11 20 11ZM5 19V14.41L8 11.41L12.29 15.7C12.48 15.89 12.74 15.99 13 15.99C13.21 15.99 13.42 15.92 13.6 15.79L16.91 13.31L19 15.4V18.99H5V19Z" fill="#CCCFD0"/>
</g>
<defs>
<clipPath id="clip0_318_6974">
<rect width="19" height="19" fill="white" transform="translate(3 2)"/>
</clipPath>
</defs>
</svg>
