<svg width="24" height="24" viewBox="0 0 24 24" fill="none" xmlns="http://www.w3.org/2000/svg">
<g clip-path="url(#clip0_318_7021)">
<path d="M19.4502 9.10953L7.45023 3.10953C7.45023 3.10953 7.42023 3.10953 7.41023 3.09953C7.39023 3.09953 7.37023 3.08953 7.34023 3.07953C7.24023 3.03953 7.14023 3.01953 7.04023 3.01953C7.03023 3.01953 7.01023 3.01953 7.00023 3.01953C7.00023 3.01953 6.99023 3.01953 6.98023 3.01953C6.87023 3.01953 6.75023 3.04953 6.64023 3.08953C6.61023 3.09953 6.59023 3.10953 6.56023 3.11953C6.53023 3.13953 6.49023 3.13953 6.46023 3.15953C6.40023 3.19953 6.35023 3.23953 6.31023 3.28953C6.30023 3.28953 6.29023 3.30953 6.28023 3.31953C6.20023 3.39953 6.14023 3.49953 6.09023 3.59953C6.08023 3.61953 6.07023 3.64953 6.06023 3.67953C6.02023 3.78953 5.99023 3.89953 5.99023 4.02953V20.0295C5.99023 20.5795 6.44023 21.0295 6.99023 21.0295C7.54023 21.0295 7.99023 20.5795 7.99023 20.0295V16.6495L19.4402 10.9295C19.7802 10.7595 19.9902 10.4095 19.9902 10.0395C19.9902 9.66953 19.7802 9.30953 19.4402 9.14953L19.4502 9.10953ZM8.00023 14.3795V5.61953L16.7602 9.99953L8.00023 14.3795Z" fill="currentColor"/>
</g>
<defs>
<clipPath id="clip0_318_7021">
<rect width="14" height="18" fill="white" transform="translate(6 3)"/>
</clipPath>
</defs>
</svg>
