<svg width="24" height="24" viewBox="0 0 24 24" fill="none" xmlns="http://www.w3.org/2000/svg">
<g clip-path="url(#clip0_318_6920)">
<path d="M19.71 18.29L16.71 15.29C16.71 15.29 16.62 15.24 16.58 15.21C17.47 14.04 18 12.58 18 11C18 7.14 14.86 4 11 4C7.14 4 4 7.14 4 11C4 14.86 7.14 18 11 18C12.58 18 14.04 17.47 15.21 16.58C15.24 16.62 15.26 16.67 15.29 16.71L18.29 19.71C18.49 19.91 18.74 20 19 20C19.26 20 19.51 19.9 19.71 19.71C20.1 19.32 20.1 18.69 19.71 18.3V18.29ZM11 16C8.24 16 6 13.76 6 11C6 8.24 8.24 6 11 6C13.76 6 16 8.24 16 11C16 13.76 13.76 16 11 16Z" fill="#CCCFD0"/>
</g>
<defs>
<clipPath id="clip0_318_6920">
<rect width="16" height="16" fill="white" transform="translate(4 4)"/>
</clipPath>
</defs>
</svg>
