<svg width="24" height="24" viewBox="0 0 24 24" fill="none" xmlns="http://www.w3.org/2000/svg">
<g clip-path="url(#clip0_318_6981)">
<path d="M20.9897 3.97023C20.9897 3.86023 20.9697 3.75023 20.9297 3.64023C20.9297 3.62023 20.9097 3.60023 20.8997 3.58023C20.8597 3.49023 20.7997 3.40023 20.7297 3.32023C20.7197 3.31023 20.7197 3.29023 20.7097 3.28023C20.7097 3.28023 20.6997 3.28023 20.6897 3.27023C20.6897 3.27023 20.6697 3.25023 20.6597 3.24023C20.5797 3.17023 20.4897 3.12023 20.3997 3.08023C20.3797 3.07023 20.3497 3.06023 20.3297 3.05023C20.2397 3.02023 20.1397 3.00023 20.0497 2.99023C20.0297 2.99023 20.0097 2.99023 19.9897 2.99023C19.8997 2.99023 19.7997 3.00023 19.7097 3.03023L3.69969 8.04023C3.34969 8.15023 3.08969 8.44023 3.01969 8.80023C2.94969 9.16023 3.07969 9.53023 3.34969 9.76023L8.99969 14.5402V20.0002C8.99969 20.3502 9.17969 20.6702 9.46969 20.8502C9.62969 20.9502 9.80969 21.0002 9.99969 21.0002C10.1497 21.0002 10.3097 20.9602 10.4497 20.8902L14.2597 18.9802L16.3597 20.7502C16.5397 20.9102 16.7697 20.9902 17.0097 20.9902C17.1197 20.9902 17.2397 20.9702 17.3397 20.9302C17.6797 20.8102 17.9197 20.5202 17.9897 20.1702L20.9797 4.18023C20.9797 4.18023 20.9797 4.09023 20.9797 4.05023C20.9797 4.02023 20.9797 4.00023 20.9797 3.97023H20.9897ZM16.4197 6.16023L9.89969 12.6802L6.02969 9.41023L16.4097 6.17023L16.4197 6.16023ZM10.9997 18.3802V16.2302L12.5997 17.5802L10.9997 18.3802ZM16.3297 18.1202L11.4297 13.9702L18.4197 6.98023L16.3297 18.1102V18.1202Z" fill="#CCCFD0"/>
</g>
<defs>
<clipPath id="clip0_318_6981">
<rect width="17.99" height="18" fill="white" transform="translate(3 3)"/>
</clipPath>
</defs>
</svg>
