<svg width="24" height="24" viewBox="0 0 24 24" fill="none" xmlns="http://www.w3.org/2000/svg">
<g clip-path="url(#clip0_318_6904)">
<path d="M20.75 12L21.59 10.94C22.08 10.33 22.14 9.49 21.74 8.81L19.64 5.19C19.25 4.51 18.5 4.15 17.72 4.26L16.37 4.45L15.86 3.19C15.57 2.46 14.88 2 14.09 2H9.88997C9.10997 2 8.40997 2.47 8.11997 3.19L7.60997 4.45L6.25997 4.26C5.47997 4.15 4.72997 4.51 4.33997 5.19L2.25997 8.81C1.86997 9.49 1.92997 10.32 2.40997 10.94L3.24997 12L2.40997 13.06C1.91997 13.67 1.85997 14.51 2.25997 15.19L4.35997 18.81C4.74997 19.49 5.50997 19.85 6.27997 19.74L7.62997 19.55L8.13997 20.81C8.42997 21.54 9.11997 22 9.90997 22H14.11C14.89 22 15.59 21.53 15.88 20.81L16.39 19.55L17.74 19.74C18.52 19.85 19.27 19.49 19.66 18.81L21.76 15.19C22.15 14.51 22.09 13.68 21.61 13.06L20.77 12H20.75ZM18.69 12.62L19.98 14.25L17.95 17.75L15.88 17.45C15.42 17.39 14.98 17.64 14.81 18.07L14.04 20H9.96997L9.19997 18.07C9.02997 17.64 8.58997 17.39 8.12997 17.45L6.05997 17.75L4.02997 14.25L5.31997 12.62C5.60997 12.26 5.60997 11.74 5.31997 11.38L4.02997 9.75L6.05997 6.25L8.12997 6.55C8.58997 6.61 9.02997 6.36 9.19997 5.93L9.96997 4H14.04L14.81 5.93C14.98 6.36 15.42 6.61 15.88 6.55L17.95 6.25L19.98 9.75L18.69 11.38C18.4 11.74 18.4 12.26 18.69 12.62Z" fill="currentColor"/>
<path d="M12 7.62012C9.59 7.62012 7.62 9.58012 7.62 12.0001C7.62 14.4201 9.58 16.3801 12 16.3801C14.42 16.3801 16.38 14.4201 16.38 12.0001C16.38 9.58012 14.42 7.62012 12 7.62012ZM12 14.3801C10.69 14.3801 9.62 13.3101 9.62 12.0001C9.62 10.6901 10.69 9.62012 12 9.62012C13.31 9.62012 14.38 10.6901 14.38 12.0001C14.38 13.3101 13.31 14.3801 12 14.3801Z" fill="currentColor"/>
</g>
<defs>
<clipPath id="clip0_318_6904">
<rect width="20" height="20" fill="white" transform="translate(2 2)"/>
</clipPath>
</defs>
</svg>
