<svg width="24" height="24" viewBox="0 0 24 24" fill="none" xmlns="http://www.w3.org/2000/svg">
<g clip-path="url(#clip0_1077_24299)">
<path d="M7 15C8.65685 15 10 13.6569 10 12C10 10.3431 8.65685 9 7 9C5.34315 9 4 10.3431 4 12C4 13.6569 5.34315 15 7 15Z" stroke="#CCCFD0" stroke-width="2" stroke-miterlimit="10"/>
<path d="M17 10C18.6569 10 20 8.65685 20 7C20 5.34315 18.6569 4 17 4C15.3431 4 14 5.34315 14 7C14 8.65685 15.3431 10 17 10Z" stroke="#CCCFD0" stroke-width="2" stroke-miterlimit="10"/>
<path d="M17 20C18.6569 20 20 18.6569 20 17C20 15.3431 18.6569 14 17 14C15.3431 14 14 15.3431 14 17C14 18.6569 15.3431 20 17 20Z" stroke="#CCCFD0" stroke-width="2" stroke-miterlimit="10"/>
<path d="M13.85 7.62988L9.84998 9.92988" stroke="#CCCFD0" stroke-width="2" stroke-miterlimit="10" stroke-linecap="round"/>
<path d="M13.72 16.3699L9.40002 13.8799" stroke="#CCCFD0" stroke-width="2" stroke-miterlimit="10" stroke-linecap="round"/>
</g>
<defs>
<clipPath id="clip0_1077_24299">
<rect width="18" height="18" fill="white" transform="translate(3 3)"/>
</clipPath>
</defs>
</svg>
