<svg width="24" height="24" viewBox="0 0 24 24" fill="none" xmlns="http://www.w3.org/2000/svg">
<g clip-path="url(#clip0_318_6960)">
<path d="M16.62 9H16V6C16 5.59 15.96 5.18 15.89 4.78C15.58 3.17 14.15 2 12.48 2C10.56 2 9 3.56 9 5.48V6C9 8.02 7.95 10.11 7.44 11H5C3.9 11 3 11.9 3 13V19C3 20.1 3.9 21 5 21H16.62C19.04 21 21 19.03 21 16.62V13.39C21 10.97 19.03 9.01 16.62 9.01V9ZM5 13H7V19H5V13ZM19 16.62C19 17.93 17.93 19 16.62 19H9V12.29C9.51 11.45 11 8.77 11 6V5.48C11 4.67 11.66 4 12.48 4C13.19 4 13.8 4.49 13.93 5.16C13.98 5.43 14.01 5.71 14.01 6V10C14.01 10.55 14.46 11 15.01 11H16.63C17.94 11 19.01 12.07 19.01 13.38V16.61L19 16.62Z" fill="#CCCFD0"/>
</g>
<defs>
<clipPath id="clip0_318_6960">
<rect width="18" height="19" fill="white" transform="translate(3 2)"/>
</clipPath>
</defs>
</svg>
