<svg width="24" height="24" viewBox="0 0 24 24" fill="none" xmlns="http://www.w3.org/2000/svg">
<g clip-path="url(#clip0_613_15062)">
<path d="M18.5 10.77C18.51 10.6 18.54 10.44 18.54 10.27C18.53 5.71 14.82 2 10.27 2C5.72 2 2 5.71 2 10.27C2 14.83 5.71 18.54 10.27 18.54C10.44 18.54 10.6 18.51 10.77 18.5C11.68 20.56 13.74 22 16.14 22C19.38 22 22.01 19.37 22.01 16.13C22.01 13.73 20.57 11.67 18.51 10.76L18.5 10.77ZM10.27 16.93C6.59 16.93 3.6 13.94 3.6 10.26C3.6 6.58 6.59 3.6 10.27 3.6C13.95 3.6 16.94 6.59 16.94 10.27C16.94 10.29 16.94 10.31 16.94 10.33C16.68 10.29 16.41 10.27 16.14 10.27C15.1 10.27 14.13 10.54 13.29 11.01L11.01 5.69C10.76 5.1 9.79 5.1 9.54 5.69L6.34 13.16C6.17 13.57 6.35 14.04 6.76 14.21C6.86 14.25 6.97 14.27 7.07 14.27C7.38 14.27 7.68 14.09 7.81 13.79L8.52 12.14H11.86C10.88 13.19 10.28 14.59 10.28 16.14C10.28 16.41 10.3 16.67 10.34 16.94C10.32 16.94 10.3 16.94 10.28 16.94L10.27 16.93ZM11.34 10.53H9.2L10.27 8.03L11.34 10.53ZM19.29 14.53H18.67C18.67 15.41 18.47 17.06 17.24 18.35C17.56 18.52 17.9 18.67 18.29 18.78C18.57 18.86 18.74 19.16 18.66 19.44C18.59 19.67 18.38 19.83 18.15 19.83C18.1 19.83 18.05 19.83 18 19.81C17.35 19.62 16.81 19.37 16.36 19.08C15.91 19.37 15.38 19.63 14.74 19.81C14.69 19.82 14.64 19.83 14.59 19.83C14.36 19.83 14.14 19.68 14.08 19.44C14 19.16 14.16 18.86 14.45 18.78C14.85 18.67 15.2 18.52 15.5 18.35C14.75 17.57 14.38 16.66 14.2 15.88C14.14 15.59 14.32 15.31 14.61 15.24C14.9 15.18 15.18 15.36 15.25 15.65C15.44 16.49 15.81 17.18 16.37 17.72C17.47 16.66 17.63 15.25 17.62 14.53H13.41C13.12 14.53 12.88 14.29 12.88 14C12.88 13.71 13.12 13.47 13.41 13.47H15.83C15.83 13.47 15.82 13.43 15.82 13.41V12.53C15.82 12.24 16.06 12 16.35 12C16.64 12 16.88 12.24 16.88 12.53V13.41C16.88 13.41 16.88 13.45 16.87 13.47H19.29C19.58 13.47 19.82 13.71 19.82 14C19.82 14.29 19.58 14.53 19.29 14.53Z" fill="#CCCFD0"/>
</g>
<defs>
<clipPath id="clip0_613_15062">
<rect width="20" height="20" fill="white" transform="translate(2 2)"/>
</clipPath>
</defs>
</svg>
