<svg width="24" height="24" viewBox="0 0 24 24" fill="none" xmlns="http://www.w3.org/2000/svg">
<g clip-path="url(#clip0_318_7024)">
<path d="M8.44043 17C8.99043 17 9.44043 16.55 9.44043 16V11C9.44043 10.45 8.99043 10 8.44043 10C7.89043 10 7.44043 10.45 7.44043 11V16C7.44043 16.55 7.89043 17 8.44043 17Z" fill="#CCCFD0"/>
<path d="M12 17C12.55 17 13 16.55 13 16V11C13 10.45 12.55 10 12 10C11.45 10 11 10.45 11 11V16C11 16.55 11.45 17 12 17Z" fill="#CCCFD0"/>
<path d="M15.5596 17C16.1096 17 16.5596 16.55 16.5596 16V11C16.5596 10.45 16.1096 10 15.5596 10C15.0096 10 14.5596 10.45 14.5596 11V16C14.5596 16.55 15.0096 17 15.5596 17Z" fill="#CCCFD0"/>
<path d="M20 6H16.56V4C16.56 3.45 16.11 3 15.56 3H8.45C7.9 3 7.45 3.45 7.45 4V6H4C3.45 6 3 6.45 3 7C3 7.55 3.45 8 4 8V19C4 20.1 4.9 21 6 21H18C19.1 21 20 20.1 20 19V8C20.55 8 21 7.55 21 7C21 6.45 20.55 6 20 6ZM9.44 5H14.55V6H9.44V5ZM18 19H6V8H18V19Z" fill="#CCCFD0"/>
</g>
<defs>
<clipPath id="clip0_318_7024">
<rect width="18" height="18" fill="white" transform="translate(3 3)"/>
</clipPath>
</defs>
</svg>
